<svg width="139" height="44" viewBox="0 0 139 44" fill="none" xmlns="http://www.w3.org/2000/svg">
<path fill-rule="evenodd" clip-rule="evenodd" d="M0 30.4969L0.0428775 43.2601H5.70292C5.96734 41.1863 5.78154 31.2464 5.80298 27.5062C6.71059 28.765 12.0204 39.4908 12.4707 41.099H15.7867C17.1445 40.1166 21.1466 29.5 22.8475 27.448L22.8975 43.231H28.6147C28.872 40.9534 28.6933 20.9572 28.6933 17.1006H20.8321L14.4002 31.0499C13.414 29.8711 8.68304 19.138 7.86119 17.1006H0V30.4969Z" fill="#116653"/>
<path fill-rule="evenodd" clip-rule="evenodd" d="M42.1722 27.8912C36.3478 29.7467 38.3202 40.5161 45.0308 38.6096C50.9124 36.9506 49.1687 25.65 42.1722 27.8912ZM42.308 22.9212C28.4437 24.915 31.3095 45.2605 45.0666 43.5214C58.6164 41.7895 56.1079 20.9274 42.308 22.9067V22.9212Z" fill="#116653"/>
<path fill-rule="evenodd" clip-rule="evenodd" d="M116.889 34.601C115.204 34.4547 113.508 34.5109 111.837 34.7684C110.157 35.2268 109.507 36.9514 110.815 38.2175C112.844 40.1822 117.604 38.6105 116.889 34.5792M105.555 25.5125L107.877 29.2673C109.578 28.6124 110.35 27.6518 112.88 27.3899C115.081 27.1643 117.297 28.0593 116.753 30.4752C114.609 31.2028 111.1 29.9512 107.906 31.4721C106.649 32.0113 105.633 33.0067 105.056 34.2652C104.479 35.5237 104.382 36.9555 104.783 38.283C106.134 43.937 113.273 45.254 117.161 41.0772L117.297 43.2602H122.442C122.771 40.5169 122.578 36.18 122.542 33.2985C122.492 29.4783 122.728 27.3608 120.555 25.025C118.89 23.2349 116.017 22.5727 112.923 22.842C109.464 23.133 107.877 24.2973 105.555 25.5343V25.5125Z" fill="#116653"/>
<path fill-rule="evenodd" clip-rule="evenodd" d="M87.5026 8.97211C85.7875 8.47002 83.0074 12.6104 80.7491 8.1935C79.4056 5.58119 80.1917 1.44805 78.5266 0C76.7614 0.174639 75.575 2.43043 74.8747 4.12589C73.7884 6.76003 73.2953 7.66958 70.1151 6.41072C65.1625 4.46058 68.6 14.415 70.5439 16.4743C75.5464 21.8008 82.693 20.6075 86.1591 15.3828C87.0142 14.0282 87.5544 12.4926 87.7384 10.8932C87.8814 9.61246 87.8385 9.51786 87.5026 8.97211Z" fill="#116653"/>
<path fill-rule="evenodd" clip-rule="evenodd" d="M89.8249 43.2445H95.4421C96.2854 41.7164 103.096 24.3253 103.246 23.0664H97.6146C95.8709 27.0467 94.413 31.4127 92.7478 35.3494C91.5043 33.9886 89.1245 25.3949 87.7453 23.0664H82.1924L89.8249 43.2445Z" fill="#116653"/>
<path fill-rule="evenodd" clip-rule="evenodd" d="M58.7519 18.3738L58.709 23.0818L56.4579 23.1328V27.2441L58.7662 27.2877C58.8591 31.5446 57.8943 38.3409 60.3027 41.157C63.1185 44.4606 67.6636 44.286 70.951 41.2007L68.9857 37.3513C68.2139 37.8389 66.8418 39.185 65.4125 38.3337C63.9832 37.4823 64.3691 33.844 64.3762 31.45V27.3023L69.1001 27.2441V23.1692L64.3476 23.1182V17.1514H58.7376L58.7519 18.3738Z" fill="#116653"/>
<path fill-rule="evenodd" clip-rule="evenodd" d="M133.005 23.4601C131.575 23.0599 129.217 23.2563 127.645 23.2345L127.602 43.1798H132.962C132.962 42.0883 132.662 34.6807 133.112 34.3969C132.962 32.6854 133.438 30.978 134.448 29.6016C135.627 28.1462 136.821 28.3646 138.922 28.0953V22.9435C136.692 22.5723 134.119 24.6171 133.205 25.5121L133.005 23.4601Z" fill="#116653"/>
<path fill-rule="evenodd" clip-rule="evenodd" d="M73.8308 43.1867L79.3551 43.2522L79.4051 23.1759L73.888 23.125L73.8308 43.1867Z" fill="#116653"/>
<path fill-rule="evenodd" clip-rule="evenodd" d="M133.111 34.3748C132.661 34.6586 132.961 42.0662 132.961 43.1577H127.601L127.644 23.2125C129.216 23.2125 131.567 23.0378 133.004 23.438C132.761 22.8195 132.932 23.0451 131.932 23.0087C131.439 23.0087 130.817 23.0087 130.31 23.0087C129.356 22.9235 128.395 22.9626 127.451 23.1251L127.372 43.2159C128.63 43.5215 131.71 43.3978 133.09 43.2887L133.111 34.3748Z" fill="#116653"/>
</svg>
